<?xml version="1.0" standalone="no"?>
<!DOCTYPE svg PUBLIC "-//W3C//DTD SVG 20010904//EN"
 "http://www.w3.org/TR/2001/REC-SVG-20010904/DTD/svg10.dtd">
<svg version="1.0" xmlns="http://www.w3.org/2000/svg"
 width="368.000000pt" height="368.000000pt" viewBox="0 0 368.000000 368.000000"
 preserveAspectRatio="xMidYMid meet">
<metadata>
Created by potrace 1.14, written by Peter Selinger 2001-2017
</metadata>
<g transform="translate(0.000000,368.000000) scale(0.100000,-0.100000)"
fill="#000000" stroke="none">
<path d="M719 3514 c-15 -139 -15 -401 -1 -466 15 -67 47 -118 85 -136 15 -7
59 -16 98 -19 l71 -6 95 -191 c52 -105 102 -200 111 -210 16 -18 16 -19 -2
-13 -19 7 -101 -34 -152 -76 -103 -85 -269 -279 -260 -303 3 -7 -2 -18 -10
-24 -8 -7 -14 -19 -14 -27 0 -7 -10 -33 -22 -56 -52 -103 -84 -318 -58 -405 8
-28 6 -37 -11 -55 -28 -30 -18 -91 32 -192 21 -44 39 -85 39 -91 0 -6 7 -17
16 -24 46 -39 44 -43 -117 -192 -251 -233 -359 -345 -359 -371 0 -19 6 -28 22
-32 30 -7 341 -23 601 -31 l207 -7 0 25 c0 47 -8 49 -285 78 -55 6 -124 15
-154 20 -30 6 -73 10 -95 10 l-41 1 26 22 c14 12 75 63 135 114 107 90 132
112 186 161 l27 25 63 -50 c112 -88 323 -207 407 -229 129 -34 420 -21 526 23
55 23 223 121 261 152 17 14 52 44 78 65 26 21 74 78 107 125 44 63 67 87 87
92 31 6 144 -3 362 -29 85 -10 177 -18 205 -18 l49 1 43 125 c65 190 162 516
163 546 0 7 -9 14 -20 17 -18 5 -29 -11 -79 -116 -32 -67 -88 -183 -123 -257
-36 -74 -69 -145 -73 -158 -6 -19 -11 -22 -35 -17 -15 3 -63 10 -107 15 -43 5
-118 14 -168 19 -49 6 -106 12 -125 14 -40 3 -41 6 -8 92 29 78 32 267 6 328
-26 57 -83 121 -121 136 -32 13 -35 18 -40 64 -2 28 -9 53 -15 55 -5 1 -8 12
-5 22 3 11 1 20 -4 20 -5 0 -10 12 -11 28 -1 15 -9 32 -17 38 -8 6 -15 16 -15
22 0 13 -38 80 -58 102 -52 60 -109 109 -182 159 -73 50 -111 72 -191 112 -17
8 -85 27 -134 38 -16 3 -88 5 -160 5 -115 -1 -140 -5 -217 -30 l-86 -29 -11
35 c-6 19 -35 85 -64 145 -30 61 -64 136 -77 168 l-24 57 51 53 c79 81 86 125
33 225 -30 58 -79 97 -258 208 -164 102 -181 111 -183 98z m576 -1034 c3 -5 1
-10 -4 -10 -6 0 -11 5 -11 10 0 6 2 10 4 10 3 0 8 -4 11 -10z m-135 -24 c0 -3
-4 -8 -10 -11 -5 -3 -10 -1 -10 4 0 6 5 11 10 11 6 0 10 -2 10 -4z m-60 -30
c0 -3 -4 -8 -10 -11 -5 -3 -10 -1 -10 4 0 6 5 11 10 11 6 0 10 -2 10 -4z m505
-340 c224 -105 230 -410 11 -524 -43 -22 -64 -26 -131 -26 -70 -1 -87 3 -134
29 -182 100 -210 341 -56 478 75 68 217 87 310 43z m640 4 c3 -5 1 -10 -4 -10
-6 0 -11 5 -11 10 0 6 2 10 4 10 3 0 8 -4 11 -10z m40 -40 c-3 -5 -11 -10 -16
-10 -6 0 -7 5 -4 10 3 6 11 10 16 10 6 0 7 -4 4 -10z m55 -51 c0 -6 -4 -7 -10
-4 -5 3 -10 11 -10 16 0 6 5 7 10 4 6 -3 10 -11 10 -16z"/>
<path d="M1485 1906 c-85 -40 -116 -84 -130 -183 -8 -59 5 -93 36 -93 39 0 59
19 59 56 0 86 58 134 163 134 63 0 68 2 77 26 14 35 13 41 -10 64 -30 30 -128
28 -195 -4z"/>
<path d="M2702 1124 c-29 -19 -51 -38 -48 -42 2 -4 -3 -8 -13 -8 -9 0 -74 -36
-144 -79 -99 -62 -126 -84 -123 -98 3 -14 1 -16 -9 -7 -10 8 -38 -4 -117 -53
-112 -70 -121 -73 -200 -87 -29 -5 -116 -20 -193 -34 -77 -14 -165 -30 -195
-36 -30 -5 -91 -17 -135 -26 -44 -8 -91 -17 -105 -18 -14 -2 -43 -6 -65 -10
-105 -19 -109 -24 -32 -48 50 -16 535 -182 667 -228 63 -23 119 -28 143 -13 7
4 21 9 32 11 41 6 95 23 95 30 0 4 10 8 23 9 47 3 292 65 326 82 9 4 22 6 30
3 9 -3 11 1 6 17 -4 12 -2 21 4 21 6 0 11 -7 11 -16 0 -10 6 -14 18 -10 9 2
46 12 82 21 36 9 73 21 82 26 10 5 27 9 38 9 19 0 87 40 150 89 14 10 77 56
140 102 63 46 120 87 125 91 6 5 62 46 125 92 156 113 173 128 163 136 -11 10
-312 44 -320 36 -3 -3 -12 -1 -20 5 -7 6 -41 13 -76 15 -34 1 -69 5 -77 7 -8
3 -40 8 -70 11 -119 14 -225 27 -245 31 -12 2 -42 -10 -73 -31z m0 -82 c-7 -2
-12 -10 -12 -18 0 -8 -3 -13 -7 -12 -9 1 -46 -13 -53 -21 -3 -3 -32 -24 -65
-46 -33 -22 -61 -43 -63 -47 -2 -4 -21 -18 -43 -30 -21 -12 -39 -25 -39 -30 0
-4 -7 -8 -15 -8 -8 0 -15 -4 -15 -8 0 -5 -11 -14 -25 -20 -43 -20 -28 4 28 44
28 20 54 41 55 46 2 4 10 8 18 8 8 0 14 5 14 10 0 6 6 10 13 10 6 0 23 9 37
20 77 62 176 127 179 117 2 -6 -1 -13 -7 -15z m148 -9 c0 -5 -32 -30 -70 -57
-39 -27 -70 -53 -70 -58 0 -4 -6 -8 -13 -8 -7 0 -25 -11 -40 -25 -15 -14 -27
-23 -27 -20 0 3 -32 -17 -72 -45 -39 -27 -76 -50 -82 -50 -14 1 8 17 187 146
81 58 147 110 147 115 0 5 9 9 20 9 11 0 20 -3 20 -7z m105 -41 c-16 -15 -49
-41 -73 -57 -133 -92 -166 -116 -219 -157 -34 -27 -53 -35 -53 -22 0 9 37 39
110 89 36 25 105 74 155 110 93 67 133 86 80 37z m155 -8 c0 -14 -4 -23 -9
-20 -10 7 -147 -82 -175 -113 -11 -12 -25 -21 -32 -21 -7 0 -14 -4 -16 -8 -6
-15 -129 -94 -136 -87 -4 4 4 15 18 24 30 20 143 103 150 111 3 3 17 11 31 19
15 7 32 24 38 38 6 13 16 21 21 18 11 -7 39 8 79 44 30 26 31 26 31 -5z m130
-11 c0 -5 -23 -24 -51 -42 -28 -19 -64 -47 -80 -62 -15 -14 -42 -32 -59 -39
-16 -7 -30 -16 -30 -20 0 -4 -10 -11 -22 -17 -13 -6 -43 -27 -66 -47 -40 -33
-81 -49 -67 -26 3 5 63 50 133 100 70 49 149 105 177 125 49 35 65 42 65 28z
m100 -27 c0 -8 -31 -35 -69 -61 -37 -25 -79 -57 -91 -70 -13 -14 -28 -25 -34
-25 -10 0 -28 -14 -83 -60 -7 -5 -16 -10 -20 -10 -5 0 -20 -11 -35 -25 -15
-14 -29 -21 -32 -17 -6 11 4 24 34 45 218 149 314 218 318 229 6 13 12 9 12
-6z m-1280 -235 c0 -4 -71 -23 -157 -40 -87 -18 -171 -36 -188 -41 -54 -15
-95 -20 -95 -11 0 5 37 16 83 25 155 30 182 36 197 42 8 4 26 8 40 10 14 2 43
8 65 13 55 12 55 12 55 2z m100 -31 c0 -5 -7 -10 -15 -10 -9 0 -71 -16 -138
-36 -67 -20 -153 -45 -192 -55 -38 -11 -79 -22 -90 -26 -14 -4 -17 -2 -10 5 6
6 82 32 170 57 88 26 180 53 205 60 57 17 70 18 70 5z m110 -34 c0 -3 -39 -16
-87 -31 -49 -14 -117 -34 -153 -45 -144 -42 -181 -51 -193 -47 -6 2 15 12 48
22 159 46 195 58 195 66 0 4 6 6 13 4 6 -3 41 4 77 14 64 19 100 25 100 17z
m90 -47 c0 -5 -9 -9 -19 -9 -11 0 -22 -4 -25 -9 -3 -5 -23 -12 -43 -16 -32 -5
-196 -50 -310 -84 -18 -5 -33 -6 -33 -2 0 4 42 19 93 35 50 15 126 38 167 51
41 13 90 26 107 30 18 4 35 11 39 16 6 11 24 2 24 -12z m104 -28 c-9 -9 -60
-24 -249 -76 -49 -14 -111 -31 -137 -39 -27 -8 -48 -11 -48 -6 0 5 25 16 55
24 30 9 80 23 110 32 30 8 57 19 59 23 3 4 18 8 33 9 15 1 62 12 103 25 74 23
93 25 74 8z m166 0 c0 -6 -4 -12 -8 -15 -5 -3 -9 1 -9 9 0 8 4 15 9 15 4 0 8
-4 8 -9z m-45 -21 c6 -10 -34 -30 -72 -35 -12 -1 -35 -7 -50 -13 -15 -6 -71
-22 -123 -37 -52 -15 -114 -33 -137 -40 -24 -8 -45 -10 -48 -5 -8 13 55 34
263 87 34 9 62 20 62 24 0 5 6 7 13 4 9 -3 67 13 84 24 1 0 5 -4 8 -9z"/>
</g>
</svg>
